HIERARCHY
ROOT Hips
{
  OFFSET 5.80788e-005 67.184 3.4734
  CHANNELS 6 Xposition Yposition Zposition Zrotation Xrotation Yrotation
  JOINT Chest
  {
    OFFSET 0 8.7983 -4.7612
    CHANNELS 3 Zrotation Xrotation Yrotation
    JOINT Chest2
    {
      OFFSET 0 8.0291 0.4195
      CHANNELS 3 Zrotation Xrotation Yrotation
      JOINT Chest3
      {
        OFFSET 0 9.9351 -2.2114
        CHANNELS 3 Zrotation Xrotation Yrotation
        JOINT Neck
        {
          OFFSET 0 22.3885 -0.4656
          CHANNELS 3 Zrotation Xrotation Yrotation
          JOINT Head
          {
            OFFSET -0.0001 12.643 3.4389
            CHANNELS 3 Zrotation Xrotation Yrotation
            End Site
            {
              OFFSET 0.0001 17.6655 0.5274
            }
          }
        }
        JOINT LeftCollar
        {
          OFFSET 2.2603 21.606 7.4023
          CHANNELS 3 Zrotation Xrotation Yrotation
          JOINT LeftShoulder
          {
            OFFSET 13.5163 -1.1332 -5.0146
            CHANNELS 3 Zrotation Xrotation Yrotation
            JOINT LeftElbow
            {
              OFFSET -0.0995 -28.05 -0.2431
              CHANNELS 3 Zrotation Xrotation Yrotation
              JOINT LeftWrist
              {
                OFFSET 0.0679 -23.3996 -0.1402
                CHANNELS 3 Zrotation Xrotation Yrotation
                JOINT LeftFinger1
                {
                  OFFSET 0.7932 -9.069 2.5189
                  CHANNELS 3 Zrotation Xrotation Yrotation
                  JOINT LeftFinger11
                  {
                    OFFSET -0.8272 -3.3923 0.5977
                    CHANNELS 3 Zrotation Xrotation Yrotation
                    JOINT LeftFinger12
                    {
                      OFFSET -0.5649 -2.3158 0.4082
                      CHANNELS 3 Zrotation Xrotation Yrotation
                      End Site
                      {
                        OFFSET -0.4919 -1.6479 0.2673
                      }
                    }
                  }
                }
                JOINT LeftFinger2
                {
                  OFFSET 0.9159 -9.2044 0.2193
                  CHANNELS 3 Zrotation Xrotation Yrotation
                  JOINT LeftFinger21
                  {
                    OFFSET 0.0117 -4.1944 -0.0248
                    CHANNELS 3 Zrotation Xrotation Yrotation
                    JOINT LeftFinger22
                    {
                      OFFSET 0.0071 -2.3249 -0.0142
                      CHANNELS 3 Zrotation Xrotation Yrotation
                      End Site
                      {
                        OFFSET -0.1475 -2.0882 0.0028
                      }
                    }
                  }
                }
                JOINT LeftFinger3
                {
                  OFFSET 0.6113 -8.7231 -2.0637
                  CHANNELS 3 Zrotation Xrotation Yrotation
                  JOINT LeftFinger31
                  {
                    OFFSET -0.1927 -3.8059 -0.2383
                    CHANNELS 3 Zrotation Xrotation Yrotation
                    JOINT LeftFinger32
                    {
                      OFFSET -0.1091 -2.1688 -0.1362
                      CHANNELS 3 Zrotation Xrotation Yrotation
                      End Site
                      {
                        OFFSET -0.2358 -1.9176 -0.0906
                      }
                    }
                  }
                }
                JOINT LeftFinger4
                {
                  OFFSET -0.6151 -8.0947 -3.5641
                  CHANNELS 3 Zrotation Xrotation Yrotation
                  JOINT LeftFinger41
                  {
                    OFFSET -0.4882 -2.341 -0.6462
                    CHANNELS 3 Zrotation Xrotation Yrotation
                    JOINT LeftFinger42
                    {
                      OFFSET -0.3575 -1.7167 -0.4742
                      CHANNELS 3 Zrotation Xrotation Yrotation
                      End Site
                      {
                        OFFSET -0.4187 -1.5237 -0.3496
                      }
                    }
                  }
                }
                JOINT LeftFinger0
                {
                  OFFSET -1.42 -1.8761 1.4223
                  CHANNELS 3 Zrotation Xrotation Yrotation
                  JOINT LeftFinger01
                  {
                    OFFSET -1.1471 -3.4929 2.6334
                    CHANNELS 3 Zrotation Xrotation Yrotation
                    JOINT LeftFinger02
                    {
                      OFFSET -0.823 -2.3 1.6571
                      CHANNELS 3 Zrotation Xrotation Yrotation
                      End Site
                      {
                        OFFSET -0.5822 -1.6914 1.1582
                      }
                    }
                  }
                }
              }
            }
          }
        }
        JOINT RightCollar
        {
          OFFSET -2.2603 21.606 7.4023
          CHANNELS 3 Zrotation Xrotation Yrotation
          JOINT RightShoulder
          {
            OFFSET -13.5187 -1.1334 -5.0155
            CHANNELS 3 Zrotation Xrotation Yrotation
            JOINT RightElbow
            {
              OFFSET 0.0994 -28.0499 -0.2431
              CHANNELS 3 Zrotation Xrotation Yrotation
              JOINT RightWrist
              {
                OFFSET -0.0679 -23.3996 -0.1402
                CHANNELS 3 Zrotation Xrotation Yrotation
                JOINT RightFinger1
                {
                  OFFSET -0.7932 -9.0691 2.5189
                  CHANNELS 3 Zrotation Xrotation Yrotation
                  JOINT RightFinger11
                  {
                    OFFSET 0.8272 -3.3923 0.5977
                    CHANNELS 3 Zrotation Xrotation Yrotation
                    JOINT RightFinger12
                    {
                      OFFSET 0.565 -2.3158 0.4082
                      CHANNELS 3 Zrotation Xrotation Yrotation
                      End Site
                      {
                        OFFSET 0.4919 -1.6479 0.2673
                      }
                    }
                  }
                }
                JOINT RightFinger2
                {
                  OFFSET -0.916 -9.2044 0.2193
                  CHANNELS 3 Zrotation Xrotation Yrotation
                  JOINT RightFinger21
                  {
                    OFFSET -0.0117 -4.1944 -0.0248
                    CHANNELS 3 Zrotation Xrotation Yrotation
                    JOINT RightFinger22
                    {
                      OFFSET -0.0071 -2.3249 -0.0142
                      CHANNELS 3 Zrotation Xrotation Yrotation
                      End Site
                      {
                        OFFSET 0.1475 -2.0882 0.0028
                      }
                    }
                  }
                }
                JOINT RightFinger3
                {
                  OFFSET -0.6113 -8.7231 -2.0637
                  CHANNELS 3 Zrotation Xrotation Yrotation
                  JOINT RightFinger31
                  {
                    OFFSET 0.1927 -3.8059 -0.2383
                    CHANNELS 3 Zrotation Xrotation Yrotation
                    JOINT RightFinger32
                    {
                      OFFSET 0.1091 -2.1688 -0.1362
                      CHANNELS 3 Zrotation Xrotation Yrotation
                      End Site
                      {
                        OFFSET 0.2358 -1.9176 -0.0906
                      }
                    }
                  }
                }
                JOINT RightFinger4
                {
                  OFFSET 0.6151 -8.0947 -3.564
                  CHANNELS 3 Zrotation Xrotation Yrotation
                  JOINT RightFinger41
                  {
                    OFFSET 0.4882 -2.341 -0.6462
                    CHANNELS 3 Zrotation Xrotation Yrotation
                    JOINT RightFinger42
                    {
                      OFFSET 0.3574 -1.7166 -0.4742
                      CHANNELS 3 Zrotation Xrotation Yrotation
                      End Site
                      {
                        OFFSET 0.4187 -1.5237 -0.3496
                      }
                    }
                  }
                }
                JOINT RightFinger0
                {
                  OFFSET 1.4199 -1.8761 1.4221
                  CHANNELS 3 Zrotation Xrotation Yrotation
                  JOINT RightFinger01
                  {
                    OFFSET 1.1472 -3.4929 2.6336
                    CHANNELS 3 Zrotation Xrotation Yrotation
                    JOINT RightFinger02
                    {
                      OFFSET 0.8229 -2.3 1.6571
                      CHANNELS 3 Zrotation Xrotation Yrotation
                      End Site
                      {
                        OFFSET 0.5822 -1.6914 1.1582
                      }
                    }
                  }
                }
              }
            }
          }
        }
      }
    }
  }
  JOINT RightHip
  {
    OFFSET -9.412 3.9771 -0.7758
    CHANNELS 3 Zrotation Xrotation Yrotation
    JOINT RightKnee
    {
      OFFSET -0.7531 -40.938 0
      CHANNELS 3 Zrotation Xrotation Yrotation
      JOINT RightAnkle
      {
        OFFSET 0 -40.1986 0
        CHANNELS 3 Zrotation Xrotation Yrotation
        JOINT RightToe
        {
          OFFSET 0 -4.4182 9.239
          CHANNELS 3 Zrotation Xrotation Yrotation
          End Site
          {
            OFFSET 0 0 6.1981
          }
        }
      }
    }
  }
  JOINT LeftHip
  {
    OFFSET 9.4119 3.9773 -0.7758
    CHANNELS 3 Zrotation Xrotation Yrotation
    JOINT LeftKnee
    {
      OFFSET 0.7532 -40.9383 0
      CHANNELS 3 Zrotation Xrotation Yrotation
      JOINT LeftAnkle
      {
        OFFSET 0 -40.1986 0
        CHANNELS 3 Zrotation Xrotation Yrotation
        JOINT LeftToe
        {
          OFFSET 0 -4.4182 9.239
          CHANNELS 3 Zrotation Xrotation Yrotation
          End Site
          {
            OFFSET 0 0 6.1981
          }
        }
      }
    }
  }
}
MOTION
Frames:	4
Frame Time:	0.0333333
39.8595 66.557 24.4052 -1.78686e-007 20.0231 4.09213e-008 -0.233037 -1.9311 -0.168976 -0.472177 -3.86151 -0.34611 -0.472176 -3.8615 -0.346109 20.9575 17.0243 -6.40188 -10.1211 8.73596 1.55027 -24.1944 15.0433 7.71003 26.4029 11.8119 22.1747 -6.75062 1.30152 -2.7945 -8.33033 -8.42668 -6.13375 -7.64627e-007 3.58433e-008 3.27451e-006 1.59028e-015 0 -0 3.18055e-015 6.36111e-015 3.18055e-015 -7.64627e-007 3.58433e-008 3.27451e-006 -0.0127832 0.00231723 8.40034e-005 1.59028e-015 3.18055e-015 -0 -7.64627e-007 3.58433e-008 3.27451e-006 -0.0160241 0.00299045 0.000856744 -3.53113e-031 -3.18055e-015 -6.36111e-015 -7.64627e-007 3.58433e-008 3.27451e-006 -0.0126595 0.0031383 0.00283291 -7.58271e-007 1.86175e-007 1.43525e-006 -7.64627e-007 3.58433e-008 3.27451e-006 1.59028e-015 0 -0 3.18055e-015 6.36111e-015 3.18055e-015 28.8475 12.3818 -14.5228 -32.4058 11.2428 -16.2812 4.37709 0.868222 2.85935 9.4142 -7.12044 5.73974 9.55625e-006 5.36205e-006 3.49574e-006 -3.53113e-031 3.18055e-015 6.36111e-015 -3.18055e-015 3.18055e-015 6.36111e-015 9.55625e-006 5.36205e-006 3.49574e-006 0.0129242 0.00230541 -8.49198e-005 5.29669e-031 -3.18055e-015 9.54166e-015 9.55625e-006 5.36205e-006 3.49574e-006 0.0163375 0.00303057 -0.000876211 -3.63432e-006 1.64491e-006 3.29323e-007 9.55625e-006 5.36205e-006 3.49574e-006 0.0145547 0.00366776 -0.00325538 -1.59028e-015 0 3.18055e-015 9.55625e-006 5.36205e-006 3.49574e-006 -3.53113e-031 3.18055e-015 6.36111e-015 -3.18055e-015 3.18055e-015 6.36111e-015 1.82164 -20.437 -10.4073 5.12969 0.58179 0.111143 3.38125 -5.22241 -18.0064 3.92199e-007 7.34141e-007 2.97155e-006 3.39007 -27.1493 -5.83602 -12.7498 10.5417 3.38971 -2.77106 -6.61227 18.4456 8.36536e-007 -2.07719e-007 2.07912e-008 
39.8593 66.5641 24.4706 1.35184e-007 19.547 -6.10074e-008 -0.233648 -1.82583 -0.168715 -0.473039 -3.65096 -0.345147 -0.473037 -3.65095 -0.345146 20.8914 16.4494 -6.1723 -10.1035 8.06853 1.42998 -23.9803 14.9038 7.45788 26.2131 11.76 22.2126 -6.75056 1.30154 -2.79447 -8.19563 -8.28256 -6.01977 -1.59028e-015 0 -0 -1.59028e-015 3.18055e-015 -0 -0 0 3.18055e-015 -1.59028e-015 0 -0 -0.0128233 0.00232921 8.56515e-005 1.59028e-015 3.18055e-015 6.36111e-015 -1.59028e-015 0 -0 -0.0160372 0.00300655 0.000857553 1.59028e-015 3.18055e-015 6.36111e-015 -1.59028e-015 0 -0 -0.0126911 0.00314901 0.00284612 1.59028e-015 -9.54166e-015 3.18055e-015 -1.59028e-015 0 -0 -1.59028e-015 3.18055e-015 -0 -0 0 3.18055e-015 28.6319 12.2447 -14.2607 -32.1907 11.2132 -16.3192 4.37709 0.868275 2.85935 9.26678 -6.98069 5.64504 -1.59028e-015 6.36111e-015 -3.18055e-015 1.59028e-015 9.54166e-015 -3.18055e-015 3.18055e-015 1.27222e-014 -6.36111e-015 -1.59028e-015 6.36111e-015 -3.18055e-015 0.0129548 0.00230648 -8.44446e-005 -1.59028e-015 0 3.18055e-015 -1.59028e-015 6.36111e-015 -3.18055e-015 0.0163306 0.00302966 -0.000873365 -0 -3.18055e-015 -0 -1.59028e-015 6.36111e-015 -3.18055e-015 0.0145648 0.00366645 -0.00325374 3.53113e-031 3.18055e-015 -6.36111e-015 -1.59028e-015 6.36111e-015 -3.18055e-015 1.59028e-015 9.54166e-015 -3.18055e-015 3.18055e-015 1.27222e-014 -6.36111e-015 1.81572 -19.9541 -10.3915 5.12569 0.596783 0.109047 3.38106 -5.2188 -18.0068 -8.37273e-007 1.43466e-006 1.8641e-008 3.34509 -26.5907 -5.90305 -12.7502 10.5462 3.39043 -2.77095 -6.61428 18.4453 -1.673e-006 1.95452e-007 -4.42786e-008 
39.859 66.5717 24.5359 2.15426e-007 19.071 2.15821e-008 -0.234262 -1.72059 -0.168462 -0.473911 -3.44049 -0.344199 -0.473909 -3.44048 -0.344197 20.8279 15.8742 -5.94409 -10.0873 7.40096 1.31006 -23.767 14.7634 7.20652 26.0234 11.7081 22.2503 -6.75056 1.30149 -2.79451 -8.06129 -8.13817 -5.90619 -3.51815e-007 4.40694e-006 2.20165e-006 -1.13716e-006 2.32451e-007 3.07561e-006 9.24701e-007 1.60881e-006 1.14128e-006 -3.51815e-007 4.40694e-006 2.20165e-006 -0.0128042 0.00232037 8.77842e-005 -6.86934e-023 1.23747e-006 3.18055e-015 -3.51815e-007 4.40694e-006 2.20165e-006 -0.0160865 0.00299914 0.000857843 1.59028e-015 1.60835e-006 3.18055e-015 -3.51815e-007 4.40694e-006 2.20165e-006 -0.012586 0.00311178 0.00282871 -2.16224e-006 1.01738e-005 6.56568e-006 -3.51815e-007 4.40694e-006 2.20165e-006 -1.13716e-006 2.32451e-007 3.07561e-006 9.24701e-007 1.60881e-006 1.14128e-006 28.4172 12.1066 -13.9993 -31.9756 11.1837 -16.357 4.37698 0.868137 2.85932 9.11954 -6.84077 5.55069 -0 -9.54166e-015 -0 -0 -6.36111e-015 -0 0 0 -0 -0 -9.54166e-015 -0 0.0129605 0.00231356 -8.75963e-005 1.59028e-015 -3.18055e-015 -0 -0 -9.54166e-015 -0 0.0163465 0.00302145 -0.000863263 3.18055e-015 3.18055e-015 -0 -0 -9.54166e-015 -0 0.0145622 0.00367624 -0.00326003 -1.59028e-015 3.18055e-015 -9.54166e-015 -0 -9.54166e-015 -0 -0 -6.36111e-015 -0 0 0 -0 1.81101 -19.4023 -10.3761 5.13281 0.538075 0.114177 3.38082 -5.20923 -18.0076 -1.19271e-015 -9.89403e-007 -0 3.30145 -26.0276 -5.96898 -12.7502 10.5465 3.39007 -2.77082 -6.6164 18.445 -8.3646e-007 2.07126e-007 -2.34864e-008 
39.8588 66.5799 24.6012 9.04154e-008 18.595 3.0814e-009 -0.234868 -1.61533 -0.168198 -0.474763 -3.22994 -0.343225 -0.474764 -3.22995 -0.343226 20.7669 15.2986 -5.71709 -10.0726 6.73327 1.1905 -23.5544 14.622 6.95576 25.8339 11.656 22.2878 -6.75055 1.30151 -2.79448 -7.92732 -7.99352 -5.79303 -3.18055e-015 3.18055e-015 3.18055e-015 1.76556e-031 3.18055e-015 -3.18055e-015 -1.59028e-015 3.18055e-015 -0 -3.18055e-015 3.18055e-015 3.18055e-015 -0.0128102 0.00231725 8.61708e-005 4.77083e-015 -3.18055e-015 -6.36111e-015 -3.18055e-015 3.18055e-015 3.18055e-015 -0.0160479 0.00299654 0.000854609 0 0 -3.18055e-015 -3.18055e-015 3.18055e-015 3.18055e-015 -0.0126481 0.00313927 0.00284068 -1.59028e-015 6.36111e-015 -6.36111e-015 -3.18055e-015 3.18055e-015 3.18055e-015 1.76556e-031 3.18055e-015 -3.18055e-015 -1.59028e-015 3.18055e-015 -0 28.2031 11.9675 -13.7385 -31.7607 11.1538 -16.3947 4.37703 0.868339 2.8593 8.97264 -6.70057 5.45675 -7.97427e-006 6.00652e-006 -2.01829e-006 7.97427e-006 -6.00652e-006 2.01829e-006 -7.97427e-006 6.00652e-006 -2.01829e-006 -7.97427e-006 6.00652e-006 -2.01829e-006 0.0129677 0.00231629 -8.22466e-005 -3.53113e-031 3.18055e-015 6.36111e-015 -7.97427e-006 6.00652e-006 -2.01829e-006 0.0163172 0.00303875 -0.000872214 0 3.18055e-015 -0 -7.97427e-006 6.00652e-006 -2.01829e-006 0.0145869 0.00367869 -0.00326024 -6.36111e-015 0 6.36111e-015 -7.97427e-006 6.00652e-006 -2.01829e-006 7.97427e-006 -6.00652e-006 2.01829e-006 -7.97427e-006 6.00652e-006 -2.01829e-006 1.80525 -18.9324 -10.3598 5.12611 0.563177 0.110667 3.38062 -5.20315 -18.0082 2.5121e-006 -5.27207e-007 -5.40151e-008 3.25832 -25.4691 -6.03436 -12.7506 10.5514 3.39081 -2.77068 -6.61873 18.4446 2.43511e-015 0 -0 
